# xmcd
#
# Track frame offsets: 
#        150
#        18508
#        47172
#        65976
#        91139
#        108762
#        131454
#        157952
#        183274
#        214230
#
# Disc length: 3213 seconds
#
# Revision: 0
# Processed by: cddbd v1.5.2PL0 Copyright (c) Steve Scherf et al.
# Submitted via: ExactAudioCopy v0.99pb5
#
DISCID=830c8b0a
DTITLE=Ha Phuong - Thuong nhau ly to hong
DYEAR=1900
DGENRE=Soundtrack
TTITLE0=Thuong nhau ly to hong_vs Huy Vu
TTITLE1=Ru lai cau ho
TTITLE2=Vet bui thoi gian
TTITLE3=Mua dua do
TTITLE4=Dan ca Dac Do
TTITLE5=Da Da bay xa
TTITLE6=Dung noi xa nhau
TTITLE7=Tuyet hong_vs Huy Vu
TTITLE8=Bien man
TTITLE9=Hoa tim ngay xua
EXTD=
EXTT0=
EXTT1=
EXTT2=
EXTT3=
EXTT4=
EXTT5=
EXTT6=
EXTT7=
EXTT8=
EXTT9=
PLAYORDER=
